<svg width="0" height="0" class="hidden">
  <!-- Социальные иконки -->
  <symbol xmlns="http://www.w3.org/2000/svg" viewBox="0 0 32 32" id="vk">
    <path d="M20.1 2.7h-8.2c-7.5 0-9.2 1.8-9.2 9.2v8.2c0 7.5 1.8 9.2 9.2 9.2h8.2c7.5 0 9.2-1.8 9.2-9.2v-8.2c0-7.5-1.7-9.2-9.2-9.2zm4.1 19h-1.9c-.7 0-1-.6-2.3-1.9-1.2-1.1-1.7-1.3-2-1.3-.4 0-.5.1-.5.7v1.7c0 .5-.1.8-1.4.8-2.1 0-4.3-1.3-5.9-3.6-2.4-3.4-3.1-5.9-3.1-6.5 0-.3.1-.5.7-.5h2c.5 0 .7.2.9.7 1 2.8 2.6 5.2 3.2 5.2.3 0 .4-.1.4-.7v-2.9c-.1-1.3-.8-1.4-.8-1.9 0-.2.2-.5.5-.5h3c.4 0 .6.2.6.7v3.9c0 .4.2.6.3.6.2 0 .5-.1.9-.6 1.4-1.6 2.4-4 2.4-4 .1-.3.3-.5.9-.5H24c.6 0 .7.3.6.7-.2 1.1-2.6 4.5-2.6 4.5-.2.3-.3.5 0 .9.2.3.9.9 1.3 1.4.8.9 1.5 1.7 1.6 2.3.1.5-.1.8-.7.8z"></path>
  </symbol>
  <symbol xmlns="http://www.w3.org/2000/svg" viewBox="0 0 32 32" id="github">
    <path d="M16 2.7c-1.8 0-3.5.3-5.1 1-1.6.7-3.1 1.6-4.3 2.9-2.5 2.5-3.9 5.9-3.9 9.4 0 5.9 3.8 10.9 9.1 12.7.7.1.9-.3.9-.7v-2.3C9 26.5 8.2 24 8.2 24c-.6-1.5-1.5-2-1.5-2-1.2-.8.1-.8.1-.8 1.3.1 2 1.4 2 1.4 1.2 2 3.1 1.4 3.9 1.1.1-.9.5-1.5.8-1.8-3-.3-6.1-1.5-6.1-6.6 0-1.5.5-2.7 1.4-3.6-.1-.3-.5-1.7.2-3.5 0 0 1.1-.4 3.7 1.4 1.1-.3 2.2-.4 3.3-.4s2.3.1 3.3.4C21.9 7.8 23 8.2 23 8.2c.7 1.8.3 3.2.1 3.5.9.9 1.4 2.1 1.4 3.6 0 5.1-3.1 6.2-6.1 6.5.5.4.9 1.2.9 2.5V28c0 .4.2.8.9.7 5.3-1.8 9.1-6.8 9.1-12.7 0-1.8-.3-3.5-1-5.1-.7-1.6-1.7-3.1-2.9-4.3-1.2-1.2-2.7-2.2-4.3-2.9-1.6-.7-3.3-1-5.1-1z"></path>
  </symbol>
  <symbol xmlns="http://www.w3.org/2000/svg" viewBox="0 0 32 32" id="telegram">
    <path d="M13 24.9l.4-5.6L23.7 10c.5-.4-.1-.6-.7-.3l-12.6 8L4.9 16c-1.2-.3-1.2-1.1.3-1.7l21.3-8.2c1-.4 1.9.2 1.5 1.7l-3.6 17.1c-.3 1.2-1 1.5-2 .9l-5.5-4.1-2.7 2.6c-.4.3-.6.6-1.2.6z"></path>
  </symbol>
  <symbol xmlns="http://www.w3.org/2000/svg" viewBox="0 0 32 32" id="twitter">
    <path d="M29.9 8c-1 .5-2.1.8-3.3.9 1.2-.7 2.1-1.8 2.5-3.2-1.1.7-2.3 1.1-3.6 1.4-1-1.1-2.5-1.8-4.2-1.8-3.1 0-5.7 2.6-5.7 5.7 0 .5.1.9.1 1.3-4.7-.2-9-2.5-11.8-6-.4.9-.7 1.9-.7 3 0 2 1 3.7 2.5 4.7-.9 0-1.8-.3-2.6-.7 0 2.8 2 5.1 4.6 5.6-.5.1-1 .2-1.5.2-.4 0-.7 0-1.1-.1.7 2.3 2.8 3.9 5.3 4-1.9 1.5-4.4 2.5-7.1 2.5-.5 0-.9 0-1.4-.1C4.4 27 7.4 28 10.7 28 21.2 28 27 19.3 27 11.7V11c1.2-.8 2.2-1.8 2.9-3z"></path>
  </symbol>
  <!-- /Социальные иконки -->

  <!-- Иконки услуг -->
  <symbol xmlns="http://www.w3.org/2000/svg" viewBox="0 0 54 54" id="dev">
    <path d="M54 18v-6h-5.4V6c0-3.3-2.4-6-5.4-6H5.4C2.4 0 0 2.7 0 6v42c0 3.3 2.4 6 5.4 6h37.8c3 0 5.4-2.7 5.4-6v-6H54v-6h-5.4v-6H54v-6h-5.4v-6H54zM43.2 48H5.4V6h37.8v42zM10.8 30h13.5v12H10.8V30zM27 12h10.8v9H27v-9zm-16.2 0h13.5v15H10.8V12zM27 24h10.8v18H27V24z"></path>
  </symbol>
    <symbol xmlns="http://www.w3.org/2000/svg" viewBox="0 0 54 54" id="host">
      <path d="M49 34.912v13.474H5V34.912h44zm2-5.614H3c-1.65 0-3 1.516-3 3.368v17.966C0 52.483 1.35 54 3 54h48c1.65 0 3-1.516 3-3.368V32.666c0-1.852-1.35-3.368-3-3.368zM11 46.702c-2.46 0-4.5-2.257-4.5-5.053s2.04-5.053 4.5-5.053 4.5 2.257 4.5 5.053-2.01 5.053-4.5 5.053zM49 5.614v13.474H5V5.614h44zM51 0H3C1.35 0 0 1.516 0 3.369v17.965c0 1.852 1.35 3.368 3 3.368h48c1.65 0 3-1.516 3-3.368V3.369C54 1.516 52.65 0 51 0zM11 17.404c-2.46 0-4.5-2.257-4.5-5.053S8.54 7.298 11 7.298s4.5 2.291 4.5 5.053-2.01 5.053-4.5 5.053z"></path>
    </symbol>
    <symbol xmlns="http://www.w3.org/2000/svg" viewBox="0 0 54 54" id="integr">
      <path d="M37.385 16.615h-20.77v19.731h20.77v-19.73zm-5.193 15.577H21.808V21.808h10.384v10.384zM54 22.846v-5.192h-5.192v-6.23c0-3.428-2.804-6.232-6.231-6.232h-6.23V0h-5.193v5.192h-8.308V0h-5.192v5.192h-6.23c-3.428 0-6.232 2.804-6.232 6.231v6.23H0v5.193h5.192v8.308H0v5.192h5.192v6.23c0 3.428 2.804 6.232 6.231 6.232h6.23V54h5.193v-5.192h8.308V54h5.192v-5.192h6.23c3.428 0 6.232-2.804 6.232-6.231v-6.23H54v-5.193h-5.192v-8.308H54zm-10.385 19.73h-33.23v-32.19h33.23v32.192z"></path>
    </symbol>
    <symbol xmlns="http://www.w3.org/2000/svg" viewBox="0 0 54 54" id="sup">
      <path d="M51.13 18.073l-15.27-1.386-5.962-14.683a3.104 3.104 0 00-5.805 0L18.13 16.72 2.893 18.074c-2.776.231-3.912 3.86-1.798 5.775L12.673 34.34l-3.47 15.574c-.632 2.838 2.302 5.081 4.7 3.564l13.092-8.25 13.093 8.283c2.397 1.517 5.331-.726 4.7-3.564l-3.47-15.607 11.578-10.492c2.114-1.914 1.01-5.544-1.767-5.775zM26.994 39.06l-11.862 7.49 3.155-14.123-10.474-9.502 13.818-1.254 5.363-13.297 5.395 13.33 13.818 1.254-10.474 9.502 3.155 14.123-11.894-7.523z"></path>
    </symbol>
    <symbol xmlns="http://www.w3.org/2000/svg" viewBox="0 0 54 54" id="adapt">
      <path d="M51.75 24.327L40.5 24.3c-1.237 0-2.25 1.215-2.25 2.7v24.3c0 1.485 1.013 2.7 2.25 2.7h11.25c1.237 0 2.25-1.215 2.25-2.7V27c0-1.485-1.013-2.673-2.25-2.673zm0 24.273H40.5V29.7h11.25v18.9zM45 0H4.5C2.025 0 0 2.43 0 5.4v32.4c0 2.97 2.025 5.4 4.5 5.4h15.75v5.4H18c-1.238 0-2.25 1.215-2.25 2.7S16.762 54 18 54h13.5c1.237 0 2.25-1.215 2.25-2.7s-1.013-2.7-2.25-2.7h-2.25v-5.4h2.25c1.237 0 2.25-1.215 2.25-2.7s-1.013-2.7-2.25-2.7H6.75c-1.237 0-2.25-1.215-2.25-2.7v-27c0-1.485 1.013-2.7 2.25-2.7h36C43.987 5.4 45 6.615 45 8.1v8.1c0 1.485 1.013 2.7 2.25 2.7s2.25-1.215 2.25-2.7V5.4C49.5 2.43 47.475 0 45 0zM26.933 18.9l-2.183-8.1-2.183 8.1H15.75l5.558 4.752-2.116 7.857 5.558-4.86 5.558 4.86-2.116-7.857L33.75 18.9h-6.817z"></path>
    </symbol>
    <symbol xmlns="http://www.w3.org/2000/svg" viewBox="0 0 54 54" id="design">
      <path d="M45.31 5.4V2.7c0-1.485-1.457-2.7-3.237-2.7H3.236C1.456 0 0 1.215 0 2.7v10.8c0 1.485 1.456 2.7 3.236 2.7h38.837c1.78 0 3.237-1.215 3.237-2.7v-2.7H49V22H23v32h5V27h26V5.4h-8.69zm-6.473 5.4H6.473V5.4h32.364v5.4z"></path>
    </symbol>
    <!-- /Иконки услуг -->
</svg>