<svg width="260" height="260" viewBox="0 0 260 260" fill="none" xmlns="http://www.w3.org/2000/svg">
<rect width="260" height="260" rx="25" fill="#3366CC"/>
<path d="M153.699 183L133.449 153.75H132.249H111.099V183H86.7986V78H132.249C141.549 78 149.599 79.55 156.399 82.65C163.299 85.75 168.599 90.15 172.299 95.85C175.999 101.55 177.849 108.3 177.849 116.1C177.849 123.9 175.949 130.65 172.149 136.35C168.449 141.95 163.149 146.25 156.249 149.25L179.799 183H153.699ZM153.249 116.1C153.249 110.2 151.349 105.7 147.549 102.6C143.749 99.4 138.199 97.8 130.899 97.8H111.099V134.4H130.899C138.199 134.4 143.749 132.8 147.549 129.6C151.349 126.4 153.249 121.9 153.249 116.1Z" fill="white"/>
</svg>
