<svg width="31" height="11" xmlns="http://www.w3.org/2000/svg"><path d="M30.2 7.25c-.107-.612-.102-1.44-.357-2.026-.164-.36-.588-.48-.874-.672-.45-.26-.907-.569-1.356-.83L22.541.682c.172.115.191 1.083.225 1.272.033.188.052 1.156.224 1.272.85.53 1.74 1.005 2.589 1.535-8.338.159-16.725.326-25.054.531.098-.017.294 2.523.44 2.498 7.58-.17 15.209-.35 22.845-.482-.952.314-1.937.73-2.807 1.224-.139.073.084.762.24 1.366l.2 1.131c.138-.073.325-.154.464-.227 0 0 .049-.009.04-.056 1.473-.794 3.11-1.229 4.747-1.663.912-.258 1.832-.469 2.727-.821.522-.189.758-.28.797-.626.008.047.057.038.066.085l-.05-.282-.033-.189zm-2.31-1.099l-.098.018-.016-.095.114.077z" fill="#FFF" fill-rule="nonzero"/></svg>