<?xml version="1.0" encoding="utf-8"?>
<!-- Generator: Adobe Illustrator 22.1.0, SVG Export Plug-In . SVG Version: 6.00 Build 0)  -->
<svg version="1.1" id="Слой_1" xmlns="http://www.w3.org/2000/svg" xmlns:xlink="http://www.w3.org/1999/xlink" x="0px" y="0px"
	 viewBox="0 0 664.4 500" style="enable-background:new 0 0 664.4 500;" xml:space="preserve">
<style type="text/css">
	.st0{fill:url(#SVGID_1_);}
	.st1{fill:#FFFFFF;}
	.st2{fill:url(#SVGID_2_);}
	.st3{fill:url(#SVGID_3_);}
	.st4{fill:url(#SVGID_4_);}
	.st5{fill:url(#SVGID_5_);}
	.st6{fill:url(#SVGID_6_);}
	.st7{fill:#78C2FF;}
	.st8{fill:#6AAFE8;}
	.st9{fill:url(#SVGID_7_);}
	.st10{fill:url(#SVGID_8_);}
	.st11{fill:#518AFA;}
	.st12{fill:url(#SVGID_9_);}
	.st13{fill:url(#SVGID_10_);}
	.st14{fill:#696969;}
	.st15{fill:url(#SVGID_11_);}
	.st16{fill:#E0E0E0;}
	.st17{fill:#1487E3;}
	.st18{fill:#FF8761;}
	.st19{fill:#323657;}
	.st20{fill:#A1D4FF;}
	.st21{fill:#5C544D;}
	.st22{fill:#3C4145;}
	.st23{fill:#F0C141;}
	.st24{fill:#EEA886;}
	.st25{fill:#3A3F47;}
	.st26{fill:#FFD255;}
	.st27{fill:#6A75BA;}
	.st28{fill:#545D94;}
	.st29{fill:#207CD6;}
	.st30{fill:#2E334D;}
	.st31{fill:#FFC955;}
	.st32{fill:#A77860;}
	.st33{fill:#C29941;}
	.st34{fill:#33373B;}
	.st35{fill:#FCCCA2;}
	.st36{fill:#E2D2CA;}
	.st37{fill:#495054;}
	.st38{fill:#F4F3F2;}
	.st39{fill:#C98462;}
	.st40{fill:#DE9D7D;}
</style>
<g>
	<g>
		<g>
			<linearGradient id="SVGID_1_" gradientUnits="userSpaceOnUse" x1="48.5023" y1="373.5623" x2="107.4501" y2="373.5623">
				<stop  offset="0" style="stop-color:#3076A1"/>
				<stop  offset="1" style="stop-color:#639C38"/>
			</linearGradient>
			<path class="st0" d="M53.7,295.7c5.1-2.4,10.1,13.8,10.1,13.8c8.6,11.4,20.7-3.8,19.5,13.3c-2.1,29.9,34.4,9.4,17.6,40.6
				c-16.8,31.2,14.8,17.6,4.4,42.8c-10.4,25.1,3.1,55.1-12.6,42.8c0,0-13.8-30.4-28.1-39.7c-14.3-9.4,8.6-20.5,4.1-33.3
				c-6.5-18.5-22.1-17.8-10.8-37.7C69.1,318.2,36.4,303.9,53.7,295.7z"/>
			<g>
				<path class="st1" d="M97.6,437.4c-6.8-4.8-14.8-38.2-15.3-58.1c-0.2-10.2-3.3-14.4-5.9-18.2c-2.5-3.6-4.7-6.7-3.5-13.8
					c2.4-13.6-4-19.4-4-19.5l0.7-0.8c0.3,0.3,7,6.3,4.4,20.5c-1.2,6.6,0.8,9.4,3.3,12.9c2.6,3.7,5.9,8.3,6.1,18.8
					c0.5,21.3,8.7,52.9,14.8,57.2L97.6,437.4z"/>
			</g>
			<g>
				<linearGradient id="SVGID_2_" gradientUnits="userSpaceOnUse" x1="91.7454" y1="406.455" x2="145.0529" y2="406.455">
					<stop  offset="0" style="stop-color:#3076A1"/>
					<stop  offset="1" style="stop-color:#639C38"/>
				</linearGradient>
				<path class="st2" d="M100.2,439.9c-0.9,0-1.8-0.1-2.9-0.3c-2.6-0.5-4.3-1.9-5.1-4.1c-1.8-5.3,2.4-13.8,5.9-17.9
					c0.1-0.1,5.8-7.1,5.2-16.9c-0.1-1.6-0.3-3.2-0.4-4.5c-0.4-3.9-0.7-6.7,0.9-8.5c1.5-1.6,4.3-2.4,9.5-2.4c9.1,0,12.7-3.8,15.5-6.8
					c1.2-1.3,2.4-2.5,3.8-3.3l0,0c4.5-2.5,9.3-2.8,11.4-0.9c1,0.9,1.8,2.8,0.2,6.2c-1.5,3.1-3.4,5.1-5,6.7c-2.1,2.1-3.5,3.5-2.8,6.4
					c0.2,0.7,0.4,1.3,0.6,2c1.4,4.8,3,10.2-5.2,13.9c-1.7,0.8-3.3,1.4-4.7,1.9c-5.7,2.2-9.2,3.6-13.1,11.8c-0.8,1.6-1.4,3.1-2.1,4.6
					C108.9,434.6,106.5,439.9,100.2,439.9z M133.1,376.1c-1.3,0.7-2.3,1.8-3.5,3c-3,3.2-6.8,7.1-16.3,7.2c-4.8,0-7.4,0.6-8.6,2
					c-1.3,1.5-1,4.1-0.6,7.7c0.2,1.4,0.3,2.9,0.4,4.6c0.6,10.3-5.2,17.4-5.5,17.7c-3.4,4.1-7.3,12.2-5.7,16.8
					c0.6,1.8,2.1,2.9,4.3,3.4c7.7,1.6,9.8-3.3,13.4-11.3c0.6-1.5,1.3-3,2.1-4.6c4.1-8.6,7.9-10.1,13.7-12.4c1.4-0.5,3-1.2,4.7-1.9
					c7.3-3.3,6-7.8,4.6-12.5c-0.2-0.7-0.4-1.4-0.6-2c-0.9-3.4,0.9-5.2,3-7.4c1.6-1.6,3.4-3.4,4.8-6.4c0.7-1.5,1.3-3.6,0.1-4.9
					C141.5,373.5,137.1,373.9,133.1,376.1L133.1,376.1z"/>
			</g>
			<g>
				<linearGradient id="SVGID_3_" gradientUnits="userSpaceOnUse" x1="96.3022" y1="414.2071" x2="136.313" y2="414.2071">
					<stop  offset="0" style="stop-color:#3076A1"/>
					<stop  offset="1" style="stop-color:#639C38"/>
				</linearGradient>
				<path class="st3" d="M97.4,446.4l-1.1-0.1c0.1-1.1,1.5-26,11.5-33.3c11-8,14.4-16.6,16.1-22.4c1.9-6.8,11.8-8.6,12.2-8.7
					l0.2,1.1c-0.1,0-9.6,1.8-11.4,7.9c-1.7,5.9-5.2,14.8-16.5,23C98.9,421,97.4,446.2,97.4,446.4z"/>
			</g>
			<linearGradient id="SVGID_4_" gradientUnits="userSpaceOnUse" x1="81.8538" y1="382.0099" x2="128.4498" y2="382.0099">
				<stop  offset="0" style="stop-color:#3076A1"/>
				<stop  offset="1" style="stop-color:#639C38"/>
			</linearGradient>
			<path class="st4" d="M120.3,320.8c-7.1-2.4-5.6,11.3-8.6,21.4c-3,10.1-33.4,4.4-20.7,29.8c12.8,25.4-16.2,8.5-7.5,30.7
				c8.6,22.2,0.8,45.9,10.1,39.8c9.4-6,5.3-33.9,15-37.3c9.8-3.3,11.4-7.2,1.7-16.2c-9.7-9,25.3-18,16.7-36.2
				C118.4,334.7,128.5,323.6,120.3,320.8z"/>
			<g>
				<path class="st1" d="M98,441.5c-0.9-3.8-8.5-37.2-1.4-41.2c6.3-3.6,6.1-17.4,5.1-30.5c-0.9-11.6,14-17,14.6-17.2l0.4,1.1
					c-0.1,0.1-14.7,5.3-13.9,16c1,13.4,1.1,27.7-5.7,31.5c-5.4,3.1-0.4,29.9,1.9,40L98,441.5z"/>
			</g>
			<linearGradient id="SVGID_5_" gradientUnits="userSpaceOnUse" x1="71.1606" y1="448.8457" x2="114.1587" y2="448.8457">
				<stop  offset="0" style="stop-color:#FF9340"/>
				<stop  offset="1" style="stop-color:#FFCE45"/>
			</linearGradient>
			<polygon class="st5" points="114.2,429.6 104,468.1 81.3,468.1 71.2,429.6 			"/>
			<linearGradient id="SVGID_6_" gradientUnits="userSpaceOnUse" x1="71.1606" y1="448.8457" x2="114.1587" y2="448.8457">
				<stop  offset="0" style="stop-color:#C97332"/>
				<stop  offset="1" style="stop-color:#FFCE45"/>
			</linearGradient>
			<path class="st6" d="M114.2,429.6c0,0-22.4,4.2-22.4,38.5H81.3l-10.2-38.5H114.2z"/>
		</g>
		<g>
			<polygon class="st7" points="550.6,282.3 496.5,282.3 496.5,281.3 549.6,281.3 549.6,237.7 550.6,237.7 			"/>
		</g>
		<g>
			<g>
				<g>
					<path class="st8" d="M541.3,203.9h-25.9V178h25.9V203.9z M516.3,203h24.1v-24.1h-24.1V203z"/>
				</g>
				<g>
					<path class="st8" d="M605.7,187.5h-59.2v-6.3h59.2V187.5z M547.3,186.6h57.5V182h-57.5V186.6z"/>
				</g>
				<g>
					<path class="st8" d="M605.7,216.9h-90.2v-6.3h90.2V216.9z M516.3,216h88.5v-4.6h-88.5V216z"/>
				</g>
				<g>
					<path class="st8" d="M572.9,229h-57.5v-6.3h57.5V229z M516.3,228.2h55.7v-4.6h-55.7V228.2z"/>
				</g>
				<g>
					<path class="st8" d="M586.6,199.6h-40.1v-6.3h40.1V199.6z M547.3,198.7h38.4v-4.6h-38.4V198.7z"/>
				</g>
			</g>
			<g>
				<path class="st8" d="M615.9,242.8H505.2v-78.5h110.7V242.8z M506,241.9h109v-76.8H506V241.9z"/>
			</g>
		</g>
		<g>
			<path class="st7" d="M550.1,238.3c-2,0-3.5-1.6-3.5-3.5c0-2,1.6-3.5,3.5-3.5c2,0,3.5,1.6,3.5,3.5
				C553.7,236.8,552.1,238.3,550.1,238.3z M550.1,232.2c-1.4,0-2.6,1.2-2.6,2.6c0,1.4,1.2,2.6,2.6,2.6c1.4,0,2.6-1.2,2.6-2.6
				C552.7,233.4,551.5,232.2,550.1,232.2z"/>
		</g>
		<g>
			<path class="st8" d="M179.3,215.8h-64.6l0.1-0.6c1-5.3,5.7-9.2,11.2-9.2c0.8,0,1.6,0.1,2.3,0.2c3.4-6.4,9.9-10.4,17.2-10.4
				c6.2,0,12,3,15.7,8c1.3-0.4,2.7-0.6,4.1-0.6c7,0,12.9,5,14,12L179.3,215.8z M115.9,214.8h62.3c-1.2-6.1-6.7-10.6-12.9-10.6
				c-1.4,0-2.8,0.2-4.2,0.7l-0.3,0.1l-0.2-0.3c-3.5-4.9-9.1-7.8-15.1-7.8c-7,0-13.3,3.9-16.5,10.2l-0.2,0.3l-0.4-0.1
				c-0.8-0.2-1.6-0.3-2.5-0.3C121.2,207,117.1,210.3,115.9,214.8z"/>
		</g>
		<g>
			<linearGradient id="SVGID_7_" gradientUnits="userSpaceOnUse" x1="219.2378" y1="451.709" x2="448.4307" y2="451.709">
				<stop  offset="0" style="stop-color:#C1BFBD"/>
				<stop  offset="1" style="stop-color:#C4C3C0"/>
			</linearGradient>
			<polygon class="st9" points="434.1,424.9 333.8,424.9 233.6,424.9 219.2,478.5 333.8,478.5 448.4,478.5 			"/>
			<path class="st1" d="M235.2,439.1h13.1c0.5,0,1,0.4,0.9,0.9l-1.3,5.7c-0.1,0.4-0.4,0.6-0.9,0.6h-13.3c-0.6,0-1-0.4-0.9-0.9
				l1.5-5.7C234.4,439.4,234.7,439.1,235.2,439.1z"/>
			<polygon class="st1" points="254.3,439.1 264.2,439.1 262.9,446.3 252.8,446.3 			"/>
			<polygon class="st1" points="269.2,439.1 279.1,439.1 278.1,446.3 267.9,446.4 			"/>
			<polygon class="st1" points="284,439.1 294,439.1 293.2,446.3 283.1,446.3 			"/>
			<polygon class="st1" points="298.9,439.1 308.8,439.1 308.4,446.3 298.3,446.3 			"/>
			<polygon class="st1" points="313.8,439.1 323.7,439.1 323.5,446.3 313.4,446.4 			"/>
			<polygon class="st1" points="432.9,439.1 418,439.1 419.6,446.3 434.7,446.3 			"/>
			<polygon class="st1" points="413,439.1 403.1,439.1 404.4,446.3 414.5,446.3 			"/>
			<polygon class="st1" points="398.1,439.1 388.2,439.1 389.3,446.3 399.4,446.4 			"/>
			<polygon class="st1" points="383.3,439.1 373.3,439.1 374.1,446.3 384.2,446.3 			"/>
			<polygon class="st1" points="368.4,439.1 358.5,439.1 358.9,446.3 369,446.3 			"/>
			<polygon class="st1" points="353.5,439.1 343.6,439.1 343.8,446.3 353.9,446.4 			"/>
			<polygon class="st1" points="328.7,439.1 338.6,439.1 338.8,446.3 328.7,446.3 			"/>
			<polygon class="st1" points="230.8,451.7 251.5,451.7 250.3,459.1 229.2,459.1 			"/>
			<polygon class="st1" points="436.1,451.7 410.5,451.7 411.9,459.1 438,459.1 			"/>
			<polygon class="st1" points="405.3,451.7 395.1,451.7 396.3,459.1 406.7,459.1 			"/>
			<polygon class="st1" points="390,451.7 379.7,451.7 380.6,459.1 391,459.1 			"/>
			<polygon class="st1" points="374.6,451.7 364.4,451.7 364.9,459.1 375.4,459.1 			"/>
			<polygon class="st1" points="359.2,451.7 349,451.7 349.3,459.1 359.7,459.1 			"/>
			<polygon class="st1" points="227.7,464.9 248.9,464.9 247.3,472.3 225.8,472.3 			"/>
			<polygon class="st1" points="254.2,464.9 264.8,464.9 263.5,472.3 252.7,472.3 			"/>
			<polygon class="st1" points="270.1,464.9 280.7,464.9 349.5,464.9 349.8,472.3 268.9,472.3 			"/>
			<polygon class="st1" points="354.8,464.9 365.4,464.9 366,472.3 355.2,472.3 			"/>
			<polygon class="st1" points="370.7,464.9 381.3,464.9 382.2,472.3 371.4,472.3 			"/>
			<polygon class="st1" points="386.6,464.9 397.2,464.9 398.4,472.3 387.6,472.3 			"/>
			<polygon class="st1" points="402.5,464.9 413.1,464.9 414.5,472.3 403.8,472.3 			"/>
			<polygon class="st1" points="418.4,464.9 439.6,464.9 441.5,472.3 419.9,472.3 			"/>
			<polygon class="st1" points="343.9,451.7 333.7,451.7 333.7,459.1 344.1,459.1 			"/>
			<polygon class="st1" points="328.5,451.7 318.3,451.7 318,459.1 328.4,459.1 			"/>
			<polygon class="st1" points="313.1,451.7 302.9,451.7 302.3,459.1 312.8,459.1 			"/>
			<polygon class="st1" points="297.8,451.7 287.5,451.7 286.7,459.1 297.1,459.1 			"/>
			<polygon class="st1" points="282.4,451.7 272.2,451.7 271,459.1 281.4,459.1 			"/>
			<polygon class="st1" points="267,451.7 256.8,451.7 255.3,459.1 265.8,459.1 			"/>
			<polygon class="st1" points="235.6,434.6 237.3,428.2 242.1,428.2 240.6,434.6 			"/>
			<polygon class="st1" points="247,428.2 256.6,428.2 255.2,434.6 245.4,434.6 			"/>
			<polygon class="st1" points="261.4,428.2 271,428.2 269.9,434.6 260.1,434.6 			"/>
			<polygon class="st1" points="275.9,428.2 285.5,428.2 284.6,434.6 274.8,434.6 			"/>
			<polygon class="st1" points="290.3,428.2 299.9,428.2 299.3,434.6 289.5,434.6 			"/>
			<polygon class="st1" points="304.7,428.2 314.4,428.2 314,434.6 304.2,434.6 			"/>
			<polygon class="st1" points="319.2,428.2 328.8,428.2 328.7,434.6 318.9,434.6 			"/>
			<polygon class="st1" points="333.6,428.2 343.3,428.2 343.4,434.6 333.6,434.6 			"/>
			<polygon class="st1" points="348.1,428.2 357.7,428.2 358.1,434.6 348.3,434.6 			"/>
			<polygon class="st1" points="362.5,428.2 372.2,428.2 372.8,434.6 363,434.6 			"/>
			<polygon class="st1" points="377,428.2 386.6,428.2 387.5,434.6 377.7,434.6 			"/>
			<polygon class="st1" points="391.4,428.2 401.1,428.2 402.2,434.6 392.4,434.6 			"/>
			<polygon class="st1" points="405.9,428.2 415.5,428.2 416.9,434.6 407.1,434.6 			"/>
			<polygon class="st1" points="420.3,428.2 430,428.2 431.6,434.6 421.8,434.6 			"/>
			<linearGradient id="SVGID_8_" gradientUnits="userSpaceOnUse" x1="113.0103" y1="480.0894" x2="342.2032" y2="480.0894">
				<stop  offset="0" style="stop-color:#A09F9F"/>
				<stop  offset="1" style="stop-color:#8E8D8D"/>
			</linearGradient>
			<rect x="219.2" y="478.5" class="st10" width="229.2" height="3.2"/>
		</g>
		<g>
			
				<rect x="318.7" y="311.4" transform="matrix(-1 -1.224647e-16 1.224647e-16 -1 669.041 718.5908)" class="st11" width="31.5" height="95.8"/>
		</g>
		<g>
			<linearGradient id="SVGID_9_" gradientUnits="userSpaceOnUse" x1="198.335" y1="261.4715" x2="470.7061" y2="261.4715">
				<stop  offset="0" style="stop-color:#C1BFBD"/>
				<stop  offset="1" style="stop-color:#C4C3C0"/>
			</linearGradient>
			<path class="st12" d="M207.9,357.5h253.2c5.3,0,9.6-4.3,9.6-9.6V175c0-5.3-4.3-9.6-9.6-9.6H207.9c-5.3,0-9.6,4.3-9.6,9.6v173
				C198.3,353.3,202.6,357.5,207.9,357.5z"/>
		</g>
		<g>
			<linearGradient id="SVGID_10_" gradientUnits="userSpaceOnUse" x1="207.9629" y1="248.7146" x2="460.5947" y2="248.7146">
				<stop  offset="0" style="stop-color:#404B61"/>
				<stop  offset="0.486" style="stop-color:#3C4860"/>
				<stop  offset="1" style="stop-color:#2F3E5C"/>
			</linearGradient>
			<polygon class="st13" points="208,322.6 460.6,322.6 460.6,174.8 208,174.8 			"/>
		</g>
		<g>
			<path class="st14" d="M325.7,341.2c0,4.9,3.9,8.8,8.8,8.8c4.9,0,8.8-3.9,8.8-8.8c0-4.9-3.9-8.8-8.8-8.8
				C329.7,332.4,325.7,336.4,325.7,341.2z"/>
		</g>
		<linearGradient id="SVGID_11_" gradientUnits="userSpaceOnUse" x1="263.5674" y1="407.1982" x2="405.4727" y2="407.1982">
			<stop  offset="0" style="stop-color:#C1BFBD"/>
			<stop  offset="1" style="stop-color:#C4C3C0"/>
		</linearGradient>
		<rect x="263.6" y="403.6" class="st15" width="141.9" height="7.2"/>
		<g>
			<path class="st8" d="M418,101.2l-0.2-0.1c-22.9-11.7-19.8-34.4-19.8-34.6l0.1-0.4h0.4c14.6,0,19.2-4.7,19.2-4.7L418,61l0.4,0.4
				c0,0,4.6,4.7,19.2,4.7h0.4l0.1,0.4c0,0.2,3.1,22.9-19.8,34.6L418,101.2z M398.9,67c-0.3,3.1-1.3,22.5,19.1,33.1
				c20.4-10.5,19.4-30,19.1-33.1c-12.7-0.1-17.8-3.6-19.1-4.7C416.7,63.4,411.5,67,398.9,67z"/>
		</g>
		<g>
			<rect x="222.5" y="186.1" class="st16" width="28.3" height="2.9"/>
		</g>
		<g>
			<rect x="258.7" y="207.9" class="st16" width="20.4" height="2.9"/>
		</g>
		<g>
			<rect x="282.3" y="207.9" class="st17" width="13.6" height="2.9"/>
		</g>
		<g>
			<rect x="310" y="295.5" class="st17" width="13.6" height="2.9"/>
		</g>
		<g>
			<rect x="222.8" y="262.8" class="st17" width="13.6" height="2.9"/>
		</g>
		<g>
			<rect x="298.5" y="207.9" class="st16" width="32.7" height="2.9"/>
		</g>
		<g>
			<rect x="222.8" y="251.8" class="st16" width="21" height="2.9"/>
		</g>
		<g>
			<rect x="279.3" y="273.7" class="st16" width="21" height="2.9"/>
		</g>
		<g>
			<rect x="357.9" y="295.5" class="st16" width="21" height="2.9"/>
		</g>
		<g>
			<rect x="252.1" y="273.7" class="st16" width="12.8" height="2.9"/>
		</g>
		<g>
			<rect x="222.8" y="273.7" class="st17" width="25.4" height="2.9"/>
		</g>
		<g>
			<rect x="222.8" y="284.6" class="st16" width="14" height="2.9"/>
		</g>
		<g>
			<rect x="256.3" y="186.1" class="st7" width="20.1" height="2.9"/>
		</g>
		<g>
			<rect x="256.3" y="218.9" class="st17" width="20.1" height="2.9"/>
		</g>
		<g>
			<rect x="246.2" y="229.8" class="st16" width="8.6" height="2.9"/>
		</g>
		<g>
			<rect x="237.7" y="240.8" class="st7" width="19.3" height="2.9"/>
		</g>
		<g>
			<rect x="259.8" y="240.8" class="st17" width="26.6" height="2.9"/>
		</g>
		<g>
			<rect x="344.1" y="284.6" class="st17" width="26.6" height="2.9"/>
		</g>
		<g>
			<rect x="222.8" y="229.8" class="st17" width="20.1" height="2.9"/>
		</g>
		<g>
			<rect x="222.8" y="240.8" class="st17" width="11.9" height="2.9"/>
		</g>
		<g>
			<rect x="258.9" y="229.8" class="st18" width="11.2" height="2.9"/>
		</g>
		<g>
			<rect x="223.1" y="295.5" class="st18" width="11.2" height="2.9"/>
		</g>
		<g>
			<rect x="222.7" y="207.9" class="st7" width="20.1" height="2.9"/>
		</g>
		<g>
			<rect x="240.5" y="262.8" class="st7" width="20.1" height="2.9"/>
		</g>
		<g>
			<rect x="240.7" y="284.6" class="st7" width="20.1" height="2.9"/>
		</g>
		<g>
			<rect x="276.4" y="284.6" class="st7" width="20.1" height="2.9"/>
		</g>
		<g>
			<rect x="222.7" y="218.9" class="st7" width="28.6" height="2.9"/>
		</g>
		<g>
			<rect x="356.9" y="186.1" class="st7" width="20.1" height="2.9"/>
		</g>
		<g>
			<rect x="285.3" y="295.5" class="st7" width="20.1" height="2.9"/>
		</g>
		<g>
			<rect x="383.2" y="186.1" class="st7" width="13.4" height="2.9"/>
		</g>
		<g>
			<rect x="428.7" y="197" class="st7" width="13.4" height="2.9"/>
		</g>
		<g>
			<rect x="281.8" y="186.1" class="st17" width="25.6" height="2.9"/>
		</g>
		<g>
			<rect x="383.2" y="295.5" class="st17" width="25.6" height="2.9"/>
		</g>
		<g>
			<rect x="238.6" y="295.5" class="st17" width="25.6" height="2.9"/>
		</g>
		<g>
			<rect x="381.5" y="197" class="st17" width="25.6" height="2.9"/>
		</g>
		<g>
			<rect x="350.1" y="207.9" class="st17" width="25.6" height="2.9"/>
		</g>
		<g>
			<rect x="327.9" y="295.5" class="st17" width="25.6" height="2.9"/>
		</g>
		<g>
			<rect x="323.9" y="273.7" class="st17" width="25.6" height="2.9"/>
		</g>
		<g>
			<rect x="269" y="273.7" class="st18" width="5.5" height="2.9"/>
		</g>
		<g>
			
				<rect x="382.7" y="214.6" transform="matrix(0.9952 9.790482e-02 -9.790482e-02 0.9952 23.0604 -37.7621)" class="st7" width="27.2" height="2.9"/>
		</g>
		<g>
			<rect x="326.3" y="186.1" class="st18" width="25.6" height="2.9"/>
		</g>
		<g>
			<polygon class="st17" points="330.1,232.3 290.4,214.6 291.6,211.9 331.3,229.6 			"/>
		</g>
		<g>
			<rect x="285.3" y="263" class="st18" width="15" height="2.9"/>
		</g>
		<g>
			<rect x="312.1" y="186.1" class="st16" width="9.4" height="2.9"/>
		</g>
		<g>
			<rect x="281.8" y="218.9" class="st16" width="9.4" height="2.9"/>
		</g>
		<g>
			<rect x="413.2" y="197" class="st16" width="9.4" height="2.9"/>
		</g>
		<g>
			<rect x="222.5" y="197" class="st17" width="14.7" height="2.9"/>
		</g>
		<g>
			<rect x="261.6" y="251.9" class="st17" width="11.6" height="2.9"/>
		</g>
		<g>
			<rect x="240.7" y="197" class="st17" width="4.7" height="2.9"/>
		</g>
		<g>
			<rect x="337.9" y="197" class="st16" width="39.1" height="2.9"/>
		</g>
		<g>
			<rect x="300.3" y="284.6" class="st16" width="39.1" height="2.9"/>
		</g>
		<g>
			<rect x="248.9" y="197" class="st18" width="4.8" height="2.9"/>
		</g>
		<g>
			<rect x="321.5" y="197" class="st17" width="12.8" height="2.9"/>
		</g>
		<g>
			<rect x="334.3" y="207.9" class="st18" width="12.8" height="2.9"/>
		</g>
		<g>
			<rect x="305.7" y="273.7" class="st18" width="12.8" height="2.9"/>
		</g>
		<g>
			<rect x="268.5" y="295.5" class="st18" width="12.8" height="2.9"/>
		</g>
		<g>
			<rect x="290.9" y="197" class="st17" width="27.2" height="2.9"/>
		</g>
		<g>
			<rect x="354.2" y="273.7" class="st17" width="27.2" height="2.9"/>
		</g>
		<g>
			<rect x="265.5" y="263" class="st17" width="15.9" height="2.9"/>
		</g>
		<g>
			<rect x="264.5" y="284.6" class="st17" width="8" height="2.9"/>
		</g>
		<g>
			<rect x="277.6" y="197" class="st7" width="9.4" height="2.9"/>
		</g>
		<g>
			<rect x="374.2" y="284.6" class="st18" width="9.4" height="2.9"/>
		</g>
		<g>
			<rect x="246.1" y="207.9" class="st18" width="9.4" height="2.9"/>
		</g>
		<g>
			<rect x="248" y="251.9" class="st18" width="9.4" height="2.9"/>
		</g>
		<g>
			<rect x="257.7" y="197" class="st17" width="16.3" height="2.9"/>
		</g>
		<g>
			<polygon class="st7" points="222.5,263.6 151.4,263.6 151.4,211.4 152.4,211.4 152.4,262.6 222.5,262.6 			"/>
		</g>
		<g>
			<polygon class="st7" points="366.5,209.4 365.5,209.4 365.5,140.3 417.5,140.3 417.5,95 418.5,95 418.5,141.2 366.5,141.2 			"/>
		</g>
		<g>
			<g>
				<g>
					<path class="st19" d="M218.9,306.8C218.9,306.8,218.9,306.8,218.9,306.8C218.9,306.8,218.9,306.8,218.9,306.8z"/>
				</g>
			</g>
		</g>
		<g>
			<polygon class="st8" points="449.9,113.2 441.6,113.2 441.6,112.2 449,112.2 449,104.9 449.9,104.9 			"/>
		</g>
		<g>
			<polygon class="st8" points="394.2,113.2 385.9,113.2 385.9,104.9 386.9,104.9 386.9,112.2 394.2,112.2 			"/>
		</g>
		<g>
			<polygon class="st8" points="386.9,57.5 385.9,57.5 385.9,49.2 394.2,49.2 394.2,50.1 386.9,50.1 			"/>
		</g>
		<g>
			<polygon class="st8" points="449.9,57.4 449,57.4 449,50.1 441.6,50.1 441.6,49.2 449.9,49.2 			"/>
		</g>
		<g>
			<rect x="449" y="69.8" class="st8" width="1" height="22.7"/>
		</g>
		<g>
			<rect x="385.9" y="69.8" class="st8" width="1" height="22.7"/>
		</g>
		<g>
			<path class="st7" d="M151.9,211.8c-2,0-3.5-1.6-3.5-3.5c0-2,1.6-3.5,3.5-3.5c2,0,3.5,1.6,3.5,3.5
				C155.4,210.3,153.8,211.8,151.9,211.8z M151.9,205.7c-1.4,0-2.6,1.2-2.6,2.6c0,1.4,1.2,2.6,2.6,2.6c1.4,0,2.6-1.2,2.6-2.6
				C154.5,206.9,153.3,205.7,151.9,205.7z"/>
		</g>
		<g>
			<path class="st7" d="M418,95.4c-2,0-3.5-1.6-3.5-3.5c0-2,1.6-3.5,3.5-3.5c2,0,3.5,1.6,3.5,3.5C421.5,93.9,419.9,95.4,418,95.4z
				 M418,89.3c-1.4,0-2.6,1.2-2.6,2.6c0,1.4,1.2,2.6,2.6,2.6c1.4,0,2.6-1.2,2.6-2.6C420.6,90.5,419.4,89.3,418,89.3z"/>
		</g>
		<g>
			<path class="st20" d="M176.8,78.3h-24.3V54h24.3V78.3z M153.4,77.3h22.4V54.9h-22.4V77.3z"/>
		</g>
		<g>
			<rect x="164.1" y="60.6" class="st20" width="1" height="11.3"/>
		</g>
		<g>
			<rect x="158.9" y="65.8" class="st20" width="11.3" height="1"/>
		</g>
		<g>
			<path class="st20" d="M547.8,107.7H513V82.8h34.8V107.7z M513.9,106.7h32.9V83.8h-32.9V106.7z"/>
		</g>
		<g>
			<polygon class="st20" points="530.4,97.9 513.1,83.7 513.8,82.9 530.4,96.6 547,82.9 547.6,83.7 			"/>
		</g>
		<g>
			
				<rect x="540.6" y="91.5" transform="matrix(0.7255 -0.6882 0.6882 0.7255 79.2617 399.9462)" class="st20" width="1" height="18.1"/>
		</g>
		<g>
			
				<rect x="510.6" y="100.1" transform="matrix(0.6879 -0.7258 0.7258 0.6879 89.191 408.6137)" class="st20" width="18.1" height="1"/>
		</g>
		<g>
			<path class="st20" d="M122.2,280.8l-0.4-0.9c-0.3,0-0.6-0.1-1-0.2l-0.7,0.7l-2.1-1.5l0.4-0.9c-0.2-0.3-0.4-0.5-0.5-0.8l-1,0
				l-0.4-2.6l0.9-0.4c0-0.3,0.1-0.6,0.2-1l-0.7-0.7l1.5-2.1l0.9,0.4c0.3-0.2,0.5-0.4,0.8-0.5l0-1l2.6-0.4l0.4,0.9
				c0.3,0,0.6,0.1,1,0.2l0.7-0.7l2.1,1.5l-0.4,0.9c0.2,0.3,0.4,0.5,0.5,0.8l1,0l0.4,2.6l-0.9,0.4c0,0.3-0.1,0.6-0.2,1l0.7,0.7
				l-1.5,2.1l-0.9-0.4c-0.3,0.2-0.5,0.4-0.8,0.5l0,1L122.2,280.8z M120.7,278.8l0.2,0.1c0.4,0.1,0.8,0.2,1.2,0.3l0.2,0l0.3,0.8
				l1.4-0.2l0-0.9l0.2-0.1c0.4-0.2,0.7-0.4,1-0.7l0.2-0.1l0.8,0.4l0.8-1.2l-0.6-0.6l0.1-0.2c0.1-0.4,0.2-0.8,0.3-1.2l0-0.2l0.8-0.3
				l-0.2-1.4l-0.9,0l-0.1-0.2c-0.2-0.4-0.4-0.7-0.7-1l-0.1-0.2l0.4-0.8l-1.2-0.8l-0.6,0.6l-0.2-0.1c-0.4-0.1-0.8-0.2-1.2-0.3l-0.2,0
				l-0.3-0.8l-1.4,0.2l0,0.9l-0.2,0.1c-0.4,0.2-0.7,0.4-1,0.7l-0.2,0.1l-0.8-0.4l-0.8,1.2l0.6,0.6l-0.1,0.2
				c-0.1,0.4-0.2,0.8-0.3,1.2l0,0.2l-0.8,0.3l0.2,1.4l0.9,0l0.1,0.2c0.2,0.4,0.4,0.7,0.7,1l0.1,0.2l-0.4,0.8l1.2,0.8L120.7,278.8z
				 M122.5,277.6c-0.6,0-1.2-0.2-1.7-0.5h0c-1.3-0.9-1.6-2.7-0.7-4c0.9-1.3,2.7-1.6,4-0.7c1.3,0.9,1.6,2.7,0.7,4
				c-0.4,0.6-1.1,1-1.9,1.2C122.8,277.6,122.6,277.6,122.5,277.6z M122.5,272.6c-0.7,0-1.3,0.3-1.7,0.9c-0.3,0.5-0.5,1-0.4,1.6
				c0.1,0.6,0.4,1.1,0.9,1.4h0c0.5,0.3,1,0.5,1.6,0.4c0.6-0.1,1.1-0.4,1.4-0.9c0.7-1,0.5-2.3-0.5-3
				C123.3,272.7,122.9,272.6,122.5,272.6z"/>
		</g>
		<g>
			<path class="st20" d="M102,283.8l-0.8-2.1c-0.9-0.1-1.7-0.3-2.5-0.6l-1.6,1.5l-4.5-3.2l0.9-2.1c-0.5-0.7-1-1.4-1.4-2.2l-2.3-0.1
				l-0.9-5.4l2.1-0.8c0.1-0.9,0.3-1.7,0.6-2.5l-1.5-1.6l3.2-4.5l2.1,0.9c0.7-0.5,1.4-1,2.2-1.4l0.1-2.3l5.4-0.9l0.8,2.1
				c0.9,0.1,1.7,0.3,2.5,0.6l1.6-1.5l4.5,3.2l-0.9,2.1c0.5,0.7,1,1.4,1.4,2.2l2.3,0.1l0.9,5.4l-2.1,0.8c-0.1,0.9-0.3,1.7-0.6,2.5
				l1.5,1.6l-3.2,4.5l-2.1-0.9c-0.7,0.5-1.4,1-2.2,1.4l-0.1,2.3L102,283.8z M98.5,280l0.3,0.1c0.9,0.4,1.9,0.6,2.9,0.7l0.3,0
				l0.7,1.9l3.9-0.7l0.1-2.1l0.3-0.1c0.9-0.4,1.7-0.9,2.5-1.6l0.2-0.2l1.9,0.8l2.3-3.2l-1.4-1.5l0.1-0.3c0.4-0.9,0.6-1.9,0.7-2.9
				l0-0.3l1.9-0.7l-0.6-3.9l-2.1-0.1l-0.1-0.3c-0.4-0.9-0.9-1.7-1.6-2.5l-0.2-0.2l0.8-1.9l-3.2-2.3l-1.5,1.4l-0.3-0.1
				c-0.9-0.4-1.9-0.6-2.9-0.7l-0.3,0l-0.7-1.9l-3.9,0.7l-0.1,2.1l-0.3,0.1c-0.9,0.4-1.7,0.9-2.5,1.6l-0.2,0.2l-1.9-0.8l-2.3,3.2
				l1.4,1.5l-0.1,0.3c-0.4,0.9-0.6,1.9-0.7,2.9l0,0.3l-1.9,0.7l0.6,3.9l2.1,0.1l0.1,0.3c0.4,0.9,0.9,1.7,1.6,2.5l0.2,0.2l-0.8,1.9
				l3.2,2.3L98.5,280z M102.5,276.5c-1.3,0-2.5-0.4-3.6-1.2c-1.4-1-2.3-2.4-2.5-4.1c-0.3-1.6,0.1-3.3,1.1-4.7c2-2.8,5.9-3.5,8.7-1.5
				c2.8,2,3.5,5.9,1.5,8.7C106.4,275.5,104.5,276.5,102.5,276.5z M102.6,264.9c-0.3,0-0.6,0-0.9,0.1c-1.4,0.2-2.6,1-3.4,2.1
				c-0.8,1.1-1.1,2.5-0.9,3.9c0.2,1.4,1,2.6,2.1,3.4c2.4,1.7,5.7,1.1,7.4-1.2c0.8-1.1,1.1-2.5,0.9-3.9c-0.2-1.4-1-2.6-2.1-3.4
				C104.7,265.3,103.6,264.9,102.6,264.9z"/>
		</g>
		<g>
			<g>
				<g>
					<path class="st7" d="M308.7,125.2c-9.9,0-18-8.1-18-18h1c0,9.4,7.6,17.1,17.1,17.1s17.1-7.6,17.1-17.1
						c0-9.4-7.6-17.1-17.1-17.1v-1c9.9,0,18,8.1,18,18C326.7,117.1,318.6,125.2,308.7,125.2z M308.7,122.7c-8.6,0-15.5-7-15.5-15.5
						c0-8.6,7-15.5,15.5-15.5c8.6,0,15.5,7,15.5,15.5h-1c0-8-6.5-14.5-14.5-14.5s-14.5,6.5-14.5,14.5c0,8,6.5,14.5,14.5,14.5V122.7z
						"/>
				</g>
			</g>
		</g>
		<g>
			<polygon class="st7" points="306.5,113.2 300,106.7 300.7,106 306.5,111.8 316.7,101.6 317.4,102.2 			"/>
		</g>
		<g>
			<g>
				<g>
					<g>
						<g>
							<g>
								<path class="st21" d="M457.6,357.2c0,0,0.9,3.5,1,4c0.1,0.5,5.5-0.9,5.5-0.9l0-4.2C464.1,356,458.3,356.6,457.6,357.2z"/>
							</g>
						</g>
					</g>
				</g>
			</g>
			<g>
				<g>
					<g>
						<g>
							<g>
								<path class="st22" d="M458.5,360.7c0,0-1.5,2.3-3.1,3.4c-1.6,1.1-7.7,2.5-8.6,3.6c-0.6,0.8-1.5,3.7,8.3,2.3
									c7-0.9,10.4-0.7,11.1-1.9c0.6-1.2-2-8.3-2-8.3S462.7,360.7,458.5,360.7z"/>
							</g>
						</g>
					</g>
				</g>
			</g>
			<g>
				<g>
					<g>
						<g>
							<g>
								<g>
									<polygon class="st23" points="456.5,455.5 436.8,255.5 439.3,255.2 458.9,455.3 									"/>
								</g>
							</g>
						</g>
					</g>
				</g>
				<g>
					<g>
						<g>
							<g>
								<g>
									
										<rect x="486.7" y="251" transform="matrix(0.9952 -9.767134e-02 9.767134e-02 0.9952 -31.9984 49.3362)" class="st23" width="2.5" height="201"/>
								</g>
							</g>
						</g>
					</g>
				</g>
				<g>
					<g>
						<g>
							<g>
								<g>
									<g>
										
											<rect x="438.4" y="256.8" transform="matrix(0.9953 -9.664810e-02 9.664810e-02 0.9953 -22.7899 45.5247)" class="st23" width="40.2" height="2.5"/>
									</g>
								</g>
							</g>
						</g>
					</g>
					<g>
						<g>
							<g>
								<g>
									<g>
										
											<rect x="440.2" y="275.4" transform="matrix(0.9954 -9.613615e-02 9.613615e-02 0.9954 -24.4617 45.537)" class="st23" width="40.2" height="2.5"/>
									</g>
								</g>
							</g>
						</g>
					</g>
					<g>
						<g>
							<g>
								<g>
									<g>
										
											<rect x="442" y="294" transform="matrix(0.9953 -9.665198e-02 9.665198e-02 0.9953 -26.372 46.05)" class="st23" width="40.2" height="2.5"/>
									</g>
								</g>
							</g>
						</g>
					</g>
					<g>
						<g>
							<g>
								<g>
									<g>
										
											<rect x="443.8" y="312.6" transform="matrix(0.9954 -9.621365e-02 9.621365e-02 0.9954 -28.0448 46.0951)" class="st23" width="40.2" height="2.5"/>
									</g>
								</g>
							</g>
						</g>
					</g>
					<g>
						<g>
							<g>
								<g>
									<g>
										
											<rect x="445.7" y="331.2" transform="matrix(0.9953 -9.697175e-02 9.697175e-02 0.9953 -30.0452 46.7328)" class="st23" width="40.2" height="2.5"/>
									</g>
								</g>
							</g>
						</g>
					</g>
					<g>
						<g>
							<g>
								<g>
									<g>
										
											<rect x="447.5" y="349.8" transform="matrix(0.9953 -9.661169e-02 9.661169e-02 0.9953 -31.7317 46.815)" class="st23" width="40.2" height="2.5"/>
									</g>
								</g>
							</g>
						</g>
					</g>
					<g>
						<g>
							<g>
								<g>
									<g>
										
											<rect x="449.3" y="368.5" transform="matrix(0.9953 -9.661213e-02 9.661213e-02 0.9953 -33.5218 47.0769)" class="st23" width="40.2" height="2.5"/>
									</g>
								</g>
							</g>
						</g>
					</g>
					<g>
						<g>
							<g>
								<g>
									<g>
										
											<rect x="451.1" y="387.1" transform="matrix(0.9953 -9.657733e-02 9.657733e-02 0.9953 -35.2998 47.3208)" class="st23" width="40.2" height="2.5"/>
									</g>
								</g>
							</g>
						</g>
					</g>
					<g>
						<g>
							<g>
								<g>
									<g>
										
											<rect x="452.9" y="405.7" transform="matrix(0.9953 -9.661213e-02 9.661213e-02 0.9953 -37.1016 47.6)" class="st23" width="40.2" height="2.5"/>
									</g>
								</g>
							</g>
						</g>
					</g>
				</g>
				<g>
					<g>
						<g>
							<g>
								<g>
									<g>
										
											<rect x="454.7" y="424.3" transform="matrix(0.9953 -9.700631e-02 9.700631e-02 0.9953 -39.0411 48.0652)" class="st23" width="40.2" height="2.5"/>
									</g>
								</g>
							</g>
						</g>
					</g>
					<g>
						<g>
							<g>
								<g>
									<g>
										
											<rect x="456.5" y="442.9" transform="matrix(0.9953 -9.657346e-02 9.657346e-02 0.9953 -40.6661 48.1032)" class="st23" width="40.2" height="2.5"/>
									</g>
								</g>
							</g>
						</g>
					</g>
				</g>
			</g>
			<g>
				<g>
					<g>
						<g>
							<g>
								<path class="st22" d="M450.9,284.4c0,0-3.9,14.6-5,19.9c-0.9,4.6-2.7,16.7-3,19.6c-0.3,2.9,11.6,30.8,12.9,35.9l10.8-1.7
									c0,0-11.4-29.1-8.5-35.6c4.4-9.6,5-9.3,8.5-17.2c3.5-7.9,11.5-8.1,13.6-22.8C480.4,282.4,453.8,279.8,450.9,284.4z"/>
							</g>
						</g>
					</g>
				</g>
			</g>
			<g>
				<g>
					<g>
						<g>
							<g>
								<path class="st24" d="M470.2,213.3c0,0-7.2-2.7-10.5,2.8c-3.3,5.5-3,16.4,0.6,17.8c3.6,1.3,9.1,0.6,10.9-2.8
									c1.9-3.4,3.5-8.4,3.5-11.7C474.6,216.1,472.1,214.2,470.2,213.3z"/>
							</g>
						</g>
					</g>
				</g>
			</g>
			<g>
				<g>
					<g>
						<g>
							<g>
								<path class="st24" d="M461.5,233.5c0,0,0.3,1.9-0.2,2.8c-0.5,0.9,9.1,1,9.1,1s0.8-5.1,2.2-9.3
									C474.1,223.7,461.5,233.5,461.5,233.5z"/>
							</g>
						</g>
					</g>
				</g>
			</g>
			<g>
				<g>
					<g>
						<g>
							<g>
								<path class="st25" d="M472.6,228c0,0-0.7,1.1-3.3,0.7c-2.7-0.4-6-4-7.1-4.4c-1.1-0.4-1.1-1.1-1.1-1.1l-0.7,1l-1.2,0.1
									c0,0,1.1-3.2-0.6-4.5c-1.6-1.3,1.7-10.3,10.3-7.3c0,0,6.6,1.8,6.4,5.6C475.1,221.8,474.1,226.1,472.6,228z"/>
							</g>
						</g>
					</g>
				</g>
			</g>
			<g>
				<g>
					<g>
						<g>
							<g>
								<path class="st24" d="M461.3,221.8c0.2-0.6,1.8-2.4,2.4-0.5c0.6,1.9-0.9,4.5-1.8,4.3C461,225.4,460.9,223.4,461.3,221.8z"/>
							</g>
						</g>
					</g>
				</g>
			</g>
			<g>
				<g>
					<g>
						<g>
							<path class="st11" d="M488.7,261c-0.1,0.9-1.2,2-1.9,2.5c-0.5,0.3-1,0.5-1.6,0.5l-0.4,0h0l-7.5,0.3c0,0-5.6-18,4.9-24.8
								C482.5,239.5,489.4,252.4,488.7,261z"/>
						</g>
					</g>
				</g>
			</g>
			<g>
				<g>
					<g>
						<g>
							<g>
								<path class="st22" d="M466.1,368.1c-0.6,1.2-4.1,1-11.1,1.9c-1.9,0.3-3.4,0.4-4.6,0.3l-0.4-4.2c2-0.7,4.4-1.4,5.3-2.1
									c1.6-1.1,3.1-3.4,3.1-3.4c4.2,0,5.6-0.8,5.6-0.8S466.8,366.9,466.1,368.1z"/>
							</g>
						</g>
					</g>
				</g>
			</g>
			<g>
				<g>
					<g>
						<g>
							<path class="st26" d="M461.5,235.8c0,0,5.9-1.4,9.2-0.2l0.5,0.5c0,0,1,1.9-2.8,2.1C464.6,238.3,458.7,238.5,461.5,235.8z"/>
						</g>
					</g>
				</g>
			</g>
			<g>
				<g>
					<g>
						<g>
							<g>
								<path class="st21" d="M484.5,373.3c0,0,0.9,3.5,1,4c0.1,0.5,5.5-0.9,5.5-0.9l0-4.2C491,372.2,485.1,372.8,484.5,373.3z"/>
							</g>
						</g>
					</g>
				</g>
			</g>
			<g>
				<g>
					<g>
						<g>
							<g>
								<path class="st22" d="M480.4,282.4c0,0,2,8.2,2.6,16.3c0.5,7.5,1.5,15.8,2.3,23.7c0.9,8.8,3.4,23,3.5,27.7
									c0.1,4.7,4.1,25.3,4.1,25.3l-10.1,1.2c0,0-6.6-36.3-8.1-40c-1.6-3.7-9.3-30.2-9.5-33.2C464.8,300.4,480.4,282.4,480.4,282.4
									z"/>
							</g>
						</g>
					</g>
				</g>
			</g>
			<g>
				<g>
					<g>
						<g>
							<g>
								<path class="st22" d="M485.4,376.9c0,0-1.5,2.3-3.1,3.4c-1.6,1.1-7.7,2.5-8.6,3.6c-0.6,0.8-1.5,3.7,8.3,2.3
									c7-0.9,10.4-0.7,11.1-1.9c0.6-1.2-2-8.3-2-8.3S489.5,376.8,485.4,376.9z"/>
							</g>
						</g>
					</g>
				</g>
			</g>
			<g>
				<g>
					<g>
						<g>
							<path class="st11" d="M448.9,302.7c-0.9-0.1,2.1-25.8,1.9-27.4c-0.2-1.1-0.1-9.4-0.1-14.6l-0.9-5.3c-0.5-0.4-1.2-0.8-2.1-1.3
								c-1.3-0.8-2.9-1.6-4.8-2.5c0.2-1.2,0.4-2.2,0.4-2.8c0.5-4.6,3.6-7.1,5.3-8.1c0.7-0.4,1.2-0.6,1.2-0.6c0.7-0.3,1.3-0.6,2-0.8
								c4.2-1.7,9.6-3.4,9.6-3.4h8.7c0,0,6.6,1.3,10.5,2.9c0.5,0.2,1,0.5,1.4,0.8l-1.2,24.7c0,0,0,0,0,0c0,0,0,0,0,0
								c-0.5,3.5-1.1,7.6-1.3,10.4c-0.1,1.2,1.3,7.5,2,13.3l2.5,13.8C484.1,301.8,482.7,307.5,448.9,302.7z"/>
						</g>
					</g>
				</g>
			</g>
			<g>
				<g>
					<g>
						<g>
							<g>
								<path class="st24" d="M404.6,222.6c0,0,0.5,0.6,0.9,0.8c0,0,0.7,0.3,1.1,0.5c0.1,0.1,0.3,0.1,0.4,0.2c0.3,0.2,1,0.7,1.9,1
									c0.9,0.3,5.1,1.2,5.1,1.2l1-2.5l0.7-2c0,0-3.9-5-4.7-5.4c-0.1,0-0.2-0.1-0.2-0.1c-0.7-0.2-1.4-0.1-1.8-0.2
									c-0.1,0-1.6-0.2-1.9,0.1c-0.4,0.4-0.6,0.9-0.5,1.3c0,0-0.8,0.9-0.9,1.7c0,0-0.8,0.8-0.6,1.8
									C405.1,221.1,404.4,222,404.6,222.6z"/>
							</g>
						</g>
					</g>
				</g>
			</g>
			<g>
				<g>
					<g>
						<g>
							<g>
								<path class="st11" d="M449.5,255.2c-1-0.6-2.2-1.5-6.5-3.6c-8.1-4-18-11.3-19.9-12.4c-2.9-1.6-12.1-12.9-12.1-12.9
									c0.5-1.7,4.8-5.1,4.8-5.1s13.9,13.2,17,14.8c2.6,1.4,15.6,2.8,19.1,3.2c0.6,0.1,0.9,0.1,0.9,0.1
									C456.5,244.3,451.6,256.5,449.5,255.2z"/>
							</g>
						</g>
					</g>
				</g>
			</g>
		</g>
		<g>
			<g>
				<path class="st27" d="M186.1,159.4c0,0-2.5-4.5-3.9-6.2c-1.4-1.6-6.1-2.9-5.4-4.9c0.6-2.1,6.9-1.2,8.6,0.9c1.7,2,7,2.8,7.2,3.6
					c0.2,0.9-1.8,5.6-3,6.4C188.5,159.9,186.1,159.4,186.1,159.4z"/>
				<path class="st28" d="M175.6,163.2c0,0-4-3.2-6-4.1c-1.9-0.9-6.7-0.2-7-2.4c-0.2-2.2,5.9-3.8,8.3-2.6c2.4,1.2,7.5-0.2,8,0.5
					c0.5,0.7,0.5,5.8-0.2,7C178,162.7,175.6,163.2,175.6,163.2z"/>
				<path class="st24" d="M184.5,171.5c0,0,1.8-12,1.7-14.1c0-0.6,3.6-0.4,3.4,0.8c-0.4,2.5,1.3,12.2,1,13.9
					C190.4,173.9,184.4,172.6,184.5,171.5z"/>
				<path class="st24" d="M179,175c0,0-3.3-11.7-4.1-13.6c-0.3-0.9,3-2.2,3.5-0.7c0.7,2.4,6,10.6,6.5,12.4
					C185.3,174.8,179.3,176.1,179,175z"/>
				<path class="st29" d="M181.3,183.1c0,0-3.5-11.9-4.1-13.2l5.6-3.4c0,0,2.6,7.6,2.9,9.5C186.1,177.9,181.3,183.1,181.3,183.1z"/>
				<path class="st30" d="M280.1,151.6c0,0-5.4,1.4-8,5.4c-2.6,4.1-4.8,8.8-9.6,10.9c-4.8,2.1-4.8,7.6-4.5,8.5
					c0.4,0.8,15.2,17.5,18.4,18.1c3.2,0.6,9.3,0.2,8.6-4.1c-0.6-4.3-7-13.5-3.4-18.1c3.6-4.6,4.5-8.9,4.5-8.9L280.1,151.6z"/>
				<path class="st24" d="M279.2,171.5c0,0-0.2-0.1-0.4-0.1c-0.3,0-0.8,0-1.3,0.2c-0.1,0-0.3,0.1-0.5,0.2c-1.3,0.8-4.3,2.8-4.7,2.9
					c-0.5,0.1-0.1-7-0.1-7s1.6-2.9,1.8-4.7C274.2,161,279.2,171.5,279.2,171.5z"/>
				<path class="st29" d="M241.2,178.8c0,0-5.9-4.2-12.9-2.9c-6.9,1.3-7.7,4.5-10.1,4.7c-2.4,0.1-10.3-0.5-16.9,1.4
					c-6.5,1.9-12,2.1-12.8,1.6c-0.7-0.5,4.1-11.4,4.1-12.9l-8.1-2.1c0,0-2.3,9.7-3.2,11.8c-1,2.3-2.8,6.7-0.2,10.5
					c2.7,3.8,10.1,2.1,14.6,2.9c4.5,0.8,24.6,0.3,28.1,0.1c3.8-0.2,15.3-0.7,15.3-0.7L241.2,178.8z"/>
				<path class="st24" d="M289.9,157.3c0,0,0.4,5.8-0.9,7.6c-0.5,0.7-0.9,1.1-1.1,1.3c-0.3,0.3-0.6,0.7-0.7,1.1
					c-0.4,1.1-0.6,2.7-1,3c-0.3,0.4-1.4-0.6-1.7-0.6c-0.4,0-3.9,3.1-4.8,2.4c-0.9-0.6-6-5.9-5.6-9.5c0.4-3.6,2-9,7.9-9
					C287.8,153.7,289.4,155.9,289.9,157.3z"/>
				<path class="st31" d="M272.2,185.2c-0.1,0.2-2.3,3.7-4.6,5.7c-1,0.8-2,1.4-2.9,1.4c-0.3,0-0.6,0-0.8,0c-2.7,0.1-4.8,0.5-8.4,0.7
					c-3.8,0.2-13-0.3-13.3-0.3s-2.9,0.5-2.9,0.5c-1-1.2,1.6-14.2,2-14.3c0.5-0.1,3.5,1.1,6.5,0.6c2.9-0.5,4.1-0.7,8.4-5.9
					c4.4-5.1,8.7-6.4,10.5-6c1.8,0.4,5.5,0,5.5,0S272.3,184.9,272.2,185.2z"/>
				<path class="st30" d="M287.4,161.5c0,0,1.1,2.8,1.7,3.2c0,0,2.1-2.2,0.8-7.7c-1.4-5.5-6.4-6-9.7-5.5c-4.1,0.7-8.2,14.6-8,15.9
					c0.2,1.4,4.8-7.2,8.8-6.5C284.9,161.7,285,161.9,287.4,161.5z"/>
				<path class="st32" d="M278.7,171.4c-0.3,0-0.8,0-1.3,0.2c-0.1,0-0.3,0.1-0.5,0.2c-0.9-1.5-1.8-4.9-1.8-5.1
					C275.8,168.6,278.7,171.4,278.7,171.4z"/>
				<path class="st33" d="M267.6,190.9c-1,0.8-2,1.4-2.9,1.4c-0.3,0-0.6,0-0.8,0l1.1-10.8L267.6,190.9z"/>
				<path class="st24" d="M288.7,209.6l-2.6,2.4c-2.3-1.2-7.9-5.3-9-6.2c-1.1-1-8.7-7.3-9.8-8.8c-1.1-1.4-2.4-16.4-2.2-17.1
					c0.1-0.7,6.6-1,7.3,0.6c0,0,0.3,8.5,0.5,10c0.2,1.4,0.7,2.7,1.7,3.9c1.4,1.7,4.2,5.5,7,8.7C282.4,203.7,287.9,208.8,288.7,209.6
					z"/>
				<path class="st31" d="M273,180.6c0,0,0.4-11.4-3.3-11.2c-4.7,0.2-5.4,5.9-4.7,12.1C265,181.5,271.9,181.6,273,180.6z"/>
				<path class="st24" d="M287.5,208.4c0,0,0.3,0.5,0.9,0.7c0.9,0.3,2.2-0.3,2.8,0.9c0.6,1.1-2.4,4-3.3,4.2
					c-0.8,0.2-2.1-1.1-3.2-3.6C283.7,208,287.5,208.4,287.5,208.4z"/>
				<path class="st24" d="M290.9,209.7c0,0,1.6,1.2,3.1,2.7c1.4,1.3,2.8,3.1,2.4,3.4c-0.5,0.5-1.4-1.1-2.9-2.3
					c-1.3-1.1-1.3-0.7-1.3-0.7s0-0.1,1.2,1.4c1.3,1.6,2.7,3.6,2.3,3.9c-0.3,0.2-0.3,0.2-0.8-0.3c0.3,0.4,0.2,0.5,0.1,0.6
					c-0.7,0.6-3.1-1.5-4-2.3c0.7,0.6,1.1,1.2,0.4,1.3c-0.8,0.1-4-3-5.2-4.1C284.9,212.2,290.9,209.7,290.9,209.7z"/>
			</g>
			<path class="st16" d="M243.9,179.4c0,0-1.2,8.9-0.6,13.3c0,0,0.7,0.5,1.9,0.1c0,0,0.3-9.8,1-13.2
				C246.3,179.6,245.9,179.3,243.9,179.4z"/>
		</g>
		<g>
			<rect x="244.2" y="18.3" class="st16" width="1" height="167.8"/>
		</g>
		<g>
			<g>
				<path class="st21" d="M162.1,431.2c0,0-0.5,3.4-0.6,3.9c-0.1,0.5-5.5-0.3-5.5-0.3l-0.4-4.1C155.7,430.7,161.5,430.7,162.1,431.2
					z"/>
			</g>
			<g>
				<path class="st22" d="M161.6,434.7c0,0,1.7,2.1,3.4,3c1.7,0.9,4.2,1.3,5.2,2.2c0.7,0.7,2.6,3.6-4.3,3.5
					c-6.9-0.1-10.2,0.4-10.9-0.7c-0.7-1.1,1.1-8.2,1.1-8.2S157.7,435,161.6,434.7z"/>
			</g>
			<g>
				<path class="st21" d="M200.8,431.2c0,0-0.5,3.4-0.6,3.9c-0.1,0.5-5.5-0.3-5.5-0.3l-0.4-4.1C194.3,430.7,200.1,430.7,200.8,431.2
					z"/>
			</g>
			<g>
				<path class="st22" d="M200.3,434.7c0,0,1.7,2.1,3.4,3c1.7,0.9,7.7,1.6,8.7,2.6c0.7,0.7,1.9,3.4-7.8,3.1
					c-6.9-0.2-10.2,0.4-10.9-0.7c-0.7-1.1,1.1-8.2,1.1-8.2S196.2,435.1,200.3,434.7z"/>
			</g>
			<g>
				<path class="st34" d="M164.1,342.5c0,0-2.9,8.5-2.5,15.9c0.4,7.3-1.5,15.4-2.2,23c-0.8,8.5-4.3,28.8-4.4,33.4
					c-0.1,4.6,0.5,19.2,0.5,19.2l6.9,0.2c0,0,5.8-35.4,7.3-39c1.5-3.6,9-29.4,9.3-32.2C179.2,360,164.1,342.5,164.1,342.5z"/>
			</g>
			<g>
				<path class="st22" d="M193.3,344c0,0,3.8,20.1,4.3,24.6c0.5,4.5,0.8,21.7,1.1,24.6c0.3,2.8,1.7,36.8,3,40.9h-8.9
					c0,0-6.8-24.7-6.8-36.4c0-11.7-5.3-25.4-8.7-33.1c-3.4-7.7-11.2-7.9-13.3-22.2C164.1,342.5,190.4,339.5,193.3,344z"/>
			</g>
			<g>
				<path class="st24" d="M175.2,275.3c0,0,7-2.6,10.2,2.7c3.2,5.3,2.9,16-0.6,17.3c-3.5,1.3-8.8,0.6-10.6-2.7
					c-1.8-3.3-3.4-8.2-3.4-11.4C170.9,278,173.4,276.2,175.2,275.3z"/>
			</g>
			<g>
				<path class="st24" d="M183.7,295c0,0-0.3,1.8,0.2,2.7c0.5,0.9-8.8,0.9-8.8,0.9s-0.8-4.9-2.2-9.1
					C171.4,285.4,183.7,295,183.7,295z"/>
			</g>
			<g>
				<path class="st35" d="M172.9,289.6c0,0,0.6,1.1,3.3,0.6c2.6-0.4,5.8-3.9,6.9-4.3c1.1-0.4,1.1-1,1.1-1l0.7,1l1.2,0.1
					c0,0-1.1-3.1,0.5-4.4c1.6-1.3-1.7-10.1-10-7.1c0,0-6.4,1.8-6.2,5.4C170.5,283.6,171.4,287.7,172.9,289.6z"/>
			</g>
			<g>
				<path class="st36" d="M184.4,297.6c0,0,0-1.7-0.8-1.9c-0.8-0.2-8.6-0.9-9.6-0.5v2C174,297.2,175.8,298.3,184.4,297.6z"/>
			</g>
			<g>
				<path class="st24" d="M183.9,283.6c-0.1-0.6-1.7-2.4-2.3-0.5c-0.6,1.9,0.9,4.4,1.7,4.2C184.2,287.1,184.3,285.1,183.9,283.6z"/>
			</g>
			<g>
				<path class="st37" d="M184.4,297.6c0,0,4.3,1.5,9.3,3.7c0,0,5.7,2.1,6.4,8.5c0.3,3.4,3.9,21.2,4.6,22.7
					c0.7,1.5,8.6,25.8,8.9,26.3c0.3,0.5-6.5,3.3-6.9,3.1c-0.4-0.2-7.7-22.1-8.4-23.8c0,0-4.2-13.1-4.3-15.1c0,0-0.1,5.6-0.3,7.2
					c-0.2,1.6,3.7,32,3.6,32.8c-0.1,0.8-17.9,1.9-25,1.1c-7.1-0.8-12.8-2.4-12.8-2.4s5.6-24,5.4-26.7c-0.4-5.8-2.3-16.7-2.3-16.7
					l-5.8,10.9l7.4,19.1l-1.7,5.8c0,0-13.8-20.8-14.2-22.7c-0.4-1.9,0.7-4.3,1.4-5.9c0.7-1.6,5.5-13.5,6.6-15.2
					c1.1-1.7,3-8.4,7.6-10.3c3.8-1.6,10.2-2.8,10.2-2.8L184.4,297.6z"/>
			</g>
			<g>
				
					<rect x="190.4" y="342.6" transform="matrix(-0.9687 0.2484 -0.2484 -0.9687 495.9084 645.979)" class="st38" width="33.5" height="23.4"/>
			</g>
			<g>
				<path class="st39" d="M216.4,363.7c0,0,0.9,1.5,1.3,1.9c0.3,0.4-0.8,0.7-1.3,0.3S216.4,363.7,216.4,363.7z"/>
			</g>
			<g>
				<path class="st40" d="M209.6,368.8c0,0-0.5-0.6-0.7-0.9c0,0-0.2-0.7-0.3-1.2c0-0.2-0.1-0.3-0.1-0.4c-0.2-0.3-0.6-1-0.7-2
					c-0.1-0.9-0.5-5.1-0.5-5.1l2.5-0.6l2-0.4c0,0,4.4,4.4,4.6,5.2c0,0.1,0,0.2,0.1,0.2c0.1,0.7-0.1,1.3-0.1,1.7c0,0.1,0,1.6-0.4,1.9
					c-0.5,0.4-0.9,0.4-1.3,0.3c0,0-0.9,0.7-1.7,0.7c0,0-0.9,0.7-1.8,0.3C211.1,368.6,210.1,369.2,209.6,368.8z"/>
			</g>
			<g>
				<path class="st37" d="M199.8,342.6c0,0,5.8,17.5,6.8,19.3c0,0,4.2-0.9,6.9-3.1l-6.3-18.8L199.8,342.6z"/>
			</g>
		</g>
	</g>
</g>
</svg>
