<svg width="195" height="124" fill="none" xmlns="http://www.w3.org/2000/svg"><path d="M3 16a3 3 0 100-6 3 3 0 000 6zM3 37.5a3 3 0 100-6 3 3 0 000 6zM3 59a3 3 0 100-6 3 3 0 000 6zM3 80.5a3 3 0 100-6 3 3 0 000 6zM3 102a3 3 0 100-6 3 3 0 000 6zM3 123.5a3 3 0 100-6 3 3 0 000 6zM24 6a3 3 0 100-6 3 3 0 000 6zM24 27.5a3 3 0 100-6 3 3 0 000 6zM24 49a3 3 0 100-6 3 3 0 000 6zM24 70.5a3 3 0 100-6 3 3 0 000 6zM24 92a3 3 0 100-6 3 3 0 000 6zM24 113.5a3 3 0 100-6 3 3 0 000 6zM45 16a3 3 0 100-6 3 3 0 000 6zM45 37.5a3 3 0 100-6 3 3 0 000 6zM45 59a3 3 0 100-6 3 3 0 000 6zM45 80.5a3 3 0 100-6 3 3 0 000 6zM45 102a3 3 0 100-6 3 3 0 000 6zM45 123.5a3 3 0 100-6 3 3 0 000 6zM66 6a3 3 0 100-6 3 3 0 000 6zM66 27.5a3 3 0 100-6 3 3 0 000 6zM66 49a3 3 0 100-6 3 3 0 000 6zM66 70.5a3 3 0 100-6 3 3 0 000 6zM66 92a3 3 0 100-6 3 3 0 000 6zM66 113.5a3 3 0 100-6 3 3 0 000 6zM87 16a3 3 0 100-6 3 3 0 000 6zM87 37.5a3 3 0 100-6 3 3 0 000 6zM87 59a3 3 0 100-6 3 3 0 000 6zM87 80.5a3 3 0 100-6 3 3 0 000 6zM87 102a3 3 0 100-6 3 3 0 000 6zM87 123.5a3 3 0 100-6 3 3 0 000 6zM108 6a3 3 0 100-6 3 3 0 000 6zM108 27.5a3 3 0 100-6 3 3 0 000 6zM108 49a3 3 0 100-6 3 3 0 000 6zM108 70.5a3 3 0 100-6 3 3 0 000 6zM108 92a3 3 0 100-6 3 3 0 000 6zM108 113.5a3 3 0 100-6 3 3 0 000 6zM129 16a3 3 0 100-6 3 3 0 000 6zM129 37.5a3 3 0 100-6 3 3 0 000 6zM129 59a3 3 0 100-6 3 3 0 000 6zM129 80.5a3 3 0 100-6 3 3 0 000 6zM129 102a3 3 0 100-6 3 3 0 000 6zM129 123.5a3 3 0 100-6 3 3 0 000 6zM150 6a3 3 0 100-6 3 3 0 000 6zM150 27.5a3 3 0 100-6 3 3 0 000 6zM150 49a3 3 0 100-6 3 3 0 000 6zM150 70.5a3 3 0 100-6 3 3 0 000 6zM150 92a3 3 0 100-6 3 3 0 000 6zM150 113.5a3 3 0 100-6 3 3 0 000 6zM171 16a3 3 0 100-6 3 3 0 000 6zM171 37.5a3 3 0 100-6 3 3 0 000 6zM171 59a3 3 0 100-6 3 3 0 000 6zM171 80.5a3 3 0 100-6 3 3 0 000 6zM171 102a3 3 0 100-6 3 3 0 000 6zM171 123.5a3 3 0 100-6 3 3 0 000 6zM192 6a3 3 0 100-6 3 3 0 000 6zM192 27.5a3 3 0 100-6 3 3 0 000 6zM192 49a3 3 0 100-6 3 3 0 000 6zM192 70.5a3 3 0 100-6 3 3 0 000 6zM192 92a3 3 0 100-6 3 3 0 000 6zM192 113.5a3 3 0 100-6 3 3 0 000 6z" fill="#BDC6D2"/></svg>